<svg version="1.1" id="Layer_1" xmlns="http://www.w3.org/2000/svg" xmlns:xlink="http://www.w3.org/1999/xlink" x="0px" y="0px"
	 width="100%" viewBox="0 0 252 77" enable-background="new 0 0 252 77" xml:space="preserve">
<path fill="#F8F9FA" opacity="1.000000" stroke="none" 
	d="
M165.000000,78.000000 
	C110.000015,78.000000 55.500034,78.000000 1.000036,78.000000 
	C1.000024,52.333359 1.000024,26.666714 1.000012,1.000054 
	C84.999947,1.000036 168.999893,1.000036 252.999878,1.000018 
	C252.999924,26.666611 252.999924,52.333221 252.999969,77.999916 
	C223.833328,78.000000 194.666672,78.000000 165.000000,78.000000 
M131.229385,47.471210 
	C131.684509,46.047401 132.252838,44.648842 132.576874,43.195801 
	C135.212830,31.375380 129.352997,20.026274 119.086662,16.982691 
	C107.617165,13.582415 96.512741,18.734966 92.468292,29.333847 
	C88.142319,40.670513 92.315399,53.087608 102.045982,57.832413 
	C112.872787,63.111752 124.632759,59.192837 131.229385,47.471210 
M162.145096,58.991974 
	C166.295197,58.991974 170.445282,58.991974 175.272644,58.991974 
	C171.926605,52.212288 171.531830,44.506550 164.494675,40.189960 
	C165.249542,39.659206 165.619293,39.344688 166.035706,39.114689 
	C171.708969,35.981274 173.844803,32.269024 173.008194,26.674873 
	C172.162415,21.019413 168.310364,18.132723 163.086655,17.841015 
	C155.221176,17.401777 147.313019,17.726568 139.486359,17.726568 
	C139.486359,31.381020 139.486359,45.101135 139.486359,58.672539 
	C143.767517,58.672539 147.685226,58.672539 152.071198,58.672539 
	C152.071198,53.638290 152.071198,48.929462 152.071198,44.220638 
	C152.510468,44.014286 152.949738,43.807938 153.388992,43.601589 
	C154.843185,45.583977 156.594940,47.417545 157.678955,49.585060 
	C159.153030,52.532478 160.116821,55.735085 162.145096,58.991974 
M71.354172,58.992329 
	C71.973930,57.918602 73.062851,56.872562 73.128136,55.766117 
	C73.350929,51.990307 73.213455,48.193237 73.213455,43.953762 
	C77.624199,43.953762 81.545357,43.953762 85.554138,43.953762 
	C85.554138,40.421505 85.554138,37.366127 85.554138,33.850952 
	C81.338760,33.850952 77.415268,33.850952 73.568512,33.850952 
	C73.568512,31.324514 73.568512,29.272150 73.568512,26.817932 
	C78.183220,26.817932 82.448647,26.817932 86.648438,26.817932 
	C86.648438,23.338989 86.648438,20.283154 86.648438,17.289268 
	C77.883514,17.289268 69.458595,17.289268 61.118599,17.289268 
	C61.118599,31.306376 61.118599,45.032211 61.118599,58.998951 
	C64.427147,58.998951 67.407730,58.998951 71.354172,58.992329 
M176.910049,25.326077 
	C177.874252,25.883341 178.806320,26.840603 179.808838,26.921196 
	C182.569504,27.143127 185.359665,26.997871 188.600281,26.997871 
	C188.600281,37.845299 188.600281,48.228020 188.600281,58.731613 
	C192.972794,58.731613 196.872406,58.731613 201.220200,58.731613 
	C201.220200,48.090698 201.220200,37.708801 201.220200,26.868977 
	C205.403900,26.868977 209.144363,26.868977 212.769745,26.868977 
	C212.769745,23.334288 212.769745,20.278372 212.769745,17.255205 
	C200.702774,17.255205 188.971786,17.255205 176.897797,17.255205 
	C176.897797,19.795929 176.897797,22.087055 176.910049,25.326077 
M35.881832,47.477570 
	C35.881832,37.385117 35.881832,27.292665 35.881832,17.301355 
	C31.266230,17.301355 27.348896,17.301355 23.464453,17.301355 
	C23.464453,31.345774 23.464453,45.069580 23.464453,58.697083 
	C27.734421,58.697083 31.654346,58.697083 35.881821,58.697083 
	C35.881821,55.077393 35.881821,51.773129 35.881832,47.477570 
z"/>
<path fill="#232D3B" opacity="1.000000" stroke="none" 
	d="
M131.093964,47.834381 
	C124.632759,59.192837 112.872787,63.111752 102.045982,57.832413 
	C92.315399,53.087608 88.142319,40.670513 92.468292,29.333847 
	C96.512741,18.734966 107.617165,13.582415 119.086662,16.982691 
	C129.352997,20.026274 135.212830,31.375380 132.576874,43.195801 
	C132.252838,44.648842 131.684509,46.047401 131.093964,47.834381 
M105.178284,31.995472 
	C105.196213,36.063385 104.443756,40.355125 105.535049,44.111187 
	C106.142563,46.202145 109.767853,48.548355 112.131096,48.657448 
	C114.215057,48.753654 117.501671,46.333454 118.341576,44.251579 
	C119.559952,41.231598 119.840004,37.317368 119.041054,34.158688 
	C118.374748,31.524418 116.034279,28.448931 113.619713,27.332134 
	C110.321434,25.806593 107.261169,27.934984 105.178284,31.995472 
z"/>
<path fill="#242E3C" opacity="1.000000" stroke="none" 
	d="
M161.722275,58.910114 
	C160.116821,55.735085 159.153030,52.532478 157.678955,49.585060 
	C156.594940,47.417545 154.843185,45.583977 153.388992,43.601589 
	C152.949738,43.807938 152.510468,44.014286 152.071198,44.220638 
	C152.071198,48.929462 152.071198,53.638290 152.071198,58.672539 
	C147.685226,58.672539 143.767517,58.672539 139.486359,58.672539 
	C139.486359,45.101135 139.486359,31.381020 139.486359,17.726568 
	C147.313019,17.726568 155.221176,17.401777 163.086655,17.841015 
	C168.310364,18.132723 172.162415,21.019413 173.008194,26.674873 
	C173.844803,32.269024 171.708969,35.981274 166.035706,39.114689 
	C165.619293,39.344688 165.249542,39.659206 164.494675,40.189960 
	C171.531830,44.506550 171.926605,52.212288 175.272644,58.991974 
	C170.445282,58.991974 166.295197,58.991974 161.722275,58.910114 
M159.759521,29.648544 
	C158.575745,25.494267 155.464157,25.838171 152.085480,26.216646 
	C152.085480,29.185575 152.085480,31.939838 152.085480,34.762253 
	C156.015656,35.380753 158.910248,34.670715 159.759521,29.648544 
z"/>
<path fill="#202A38" opacity="1.000000" stroke="none" 
	d="
M70.871246,58.995640 
	C67.407730,58.998951 64.427147,58.998951 61.118599,58.998951 
	C61.118599,45.032211 61.118599,31.306376 61.118599,17.289268 
	C69.458595,17.289268 77.883514,17.289268 86.648438,17.289268 
	C86.648438,20.283154 86.648438,23.338989 86.648438,26.817932 
	C82.448647,26.817932 78.183220,26.817932 73.568512,26.817932 
	C73.568512,29.272150 73.568512,31.324514 73.568512,33.850952 
	C77.415268,33.850952 81.338760,33.850952 85.554138,33.850952 
	C85.554138,37.366127 85.554138,40.421505 85.554138,43.953762 
	C81.545357,43.953762 77.624199,43.953762 73.213455,43.953762 
	C73.213455,48.193237 73.350929,51.990307 73.128136,55.766117 
	C73.062851,56.872562 71.973930,57.918602 70.871246,58.995640 
z"/>
<path fill="#202A38" opacity="1.000000" stroke="none" 
	d="
M176.903931,24.852129 
	C176.897797,22.087055 176.897797,19.795929 176.897797,17.255205 
	C188.971786,17.255205 200.702774,17.255205 212.769745,17.255205 
	C212.769745,20.278372 212.769745,23.334288 212.769745,26.868977 
	C209.144363,26.868977 205.403900,26.868977 201.220200,26.868977 
	C201.220200,37.708801 201.220200,48.090698 201.220200,58.731613 
	C196.872406,58.731613 192.972794,58.731613 188.600281,58.731613 
	C188.600281,48.228020 188.600281,37.845299 188.600281,26.997871 
	C185.359665,26.997871 182.569504,27.143127 179.808838,26.921196 
	C178.806320,26.840603 177.874252,25.883341 176.903931,24.852129 
z"/>
<path fill="#27313E" opacity="1.000000" stroke="none" 
	d="
M35.881828,47.973217 
	C35.881821,51.773129 35.881821,55.077393 35.881821,58.697083 
	C31.654346,58.697083 27.734421,58.697083 23.464453,58.697083 
	C23.464453,45.069580 23.464453,31.345774 23.464453,17.301355 
	C27.348896,17.301355 31.266230,17.301355 35.881832,17.301355 
	C35.881832,27.292665 35.881832,37.385117 35.881828,47.973217 
z"/>
<path fill="#F1F3F4" opacity="1.000000" stroke="none" 
	d="
M105.349693,31.639477 
	C107.261169,27.934984 110.321434,25.806593 113.619713,27.332134 
	C116.034279,28.448931 118.374748,31.524418 119.041054,34.158688 
	C119.840004,37.317368 119.559952,41.231598 118.341576,44.251579 
	C117.501671,46.333454 114.215057,48.753654 112.131096,48.657448 
	C109.767853,48.548355 106.142563,46.202145 105.535049,44.111187 
	C104.443756,40.355125 105.196213,36.063385 105.349693,31.639477 
z"/>
<path fill="#F1F2F4" opacity="1.000000" stroke="none" 
	d="
M159.768646,30.034824 
	C158.910248,34.670715 156.015656,35.380753 152.085480,34.762253 
	C152.085480,31.939838 152.085480,29.185575 152.085480,26.216646 
	C155.464157,25.838171 158.575745,25.494267 159.768646,30.034824 
z"/>
</svg>